<svg xmlns="http://www.w3.org/2000/svg" viewBox="0 0 32 32" width="32" height="32">
  <defs>
    <linearGradient id="grad1" x1="0%" y1="0%" x2="100%" y2="100%">
      <stop offset="0%" style="stop-color:#d4af37;stop-opacity:1" />
      <stop offset="100%" style="stop-color:#8b4513;stop-opacity:1" />
    </linearGradient>
  </defs>
  
  <!-- Background circle -->
  <circle cx="16" cy="16" r="15" fill="url(#grad1)" stroke="#8b4513" stroke-width="1"/>
  
  <!-- Heart shape -->
  <path d="M16 24c-0.5 0-1-0.2-1.4-0.6l-8.5-8.5c-1.6-1.6-1.6-4.2 0-5.8s4.2-1.6 5.8 0L16 12.2l3.1-3.1c1.6-1.6 4.2-1.6 5.8 0s1.6 4.2 0 5.8l-8.5 8.5C17 23.8 16.5 24 16 24z" 
        fill="white" stroke="white" stroke-width="0.5"/>
  
  <!-- Small decorative elements -->
  <circle cx="8" cy="8" r="1" fill="white" opacity="0.8"/>
  <circle cx="24" cy="8" r="1" fill="white" opacity="0.8"/>
  <circle cx="8" cy="24" r="1" fill="white" opacity="0.8"/>
  <circle cx="24" cy="24" r="1" fill="white" opacity="0.8"/>
</svg> 